<svg width="260" height="228" xmlns="http://www.w3.org/2000/svg" enable-background="new 0 0 962 228.1">

 <g>
  <title>Layer 1</title>
  <path id="svg_16" d="m0.1,60.49922l9.2,0c6.7,0 10.8,3.4 10.8,9c0,3.6 -1.8,6.4 -4.8,7.8l9.5,13.4l-7.3,0l-8,-12.2l-3.3,0l0,12.2l-6.1,0l0,-30.2zm6.1,5.2l0,7.5l3.5,0c2.6,0 4.1,-1.4 4.1,-3.8c0,-2.3 -1.5,-3.7 -4.1,-3.7l-3.5,0z"/>
  <path id="svg_17" d="m28.6,60.49922l17.6,0l0,5.2l-11.5,0l0,7l9.8,0l0,5.2l-9.8,0l0,7.6l11.5,0l0,5.2l-17.6,0l0,-30.2zm6,-2.6l4.9,-5.8l6.3,0l-5.6,5.8l-5.6,0z"/>
  <path id="svg_18" d="m53.4,60.49922l10,0c6.7,0 10.7,3.4 10.7,9s-4.1,9 -10.7,9l-3.8,0l0,12.2l-6.1,0l-0.1,-30.2zm6.1,5.2l0,7.5l4.1,0c2.6,0 4.1,-1.4 4.1,-3.8c0,-2.3 -1.6,-3.7 -4.1,-3.7l-4.1,0z"/>
  <path id="svg_19" d="m97,60.49922l6.1,0l0,18.4c0,8 -4.7,12.7 -12.3,12.7s-12.2,-4.8 -12.2,-12.7l0,-18.4l6.1,0l0,18.9c0,4.1 2.3,6.4 6.1,6.4s6.1,-2.4 6.1,-6.4l0,-18.9l0.1,0z"/>
  <path id="svg_20" d="m110.7,60.49922l8.6,0c6.3,0 10.1,3.1 10.1,8.2c0,2.4 -1.1,4.5 -3.2,6c3.2,1.4 5,4 5,7.2c0,5.5 -4.3,8.9 -11.2,8.9l-9.2,0l0,-30.3l-0.1,0zm6.1,5.2l0,6.6l2.6,0c2.3,0 3.7,-1.2 3.7,-3.3c0,-2 -1.3,-3.3 -3.7,-3.3l-2.6,0zm0,11.9l0,7.9l3.5,0c2.9,0 4.6,-1.5 4.6,-4s-1.7,-3.9 -4.6,-3.9l-3.5,0z"/>
  <path id="svg_21" d="m137.5,60.49922l6.1,0l0,24.7l11.5,0l0,5.6l-17.6,0l0,-30.3z"/>
  <path id="svg_22" d="m160.5,60.49922l6.1,0l0,30.3l-6.1,0l0,-30.3z"/>
  <path id="svg_23" d="m206.8,92.79922c0.6,0 1.5,-0.1 2.2,-0.3l0,5.2c-1,0.4 -1.9,0.6 -3.2,0.6c-3.4,0 -6.5,-1.4 -9.5,-4l-3.6,-3.2c-1.3,0.3 -2.7,0.5 -4.1,0.5c-9.6,0 -16.1,-7.3 -16.1,-16c0,-8.6 6.5,-16 16.1,-16c9.5,0 16,7.3 16,16c0,5.1 -2.2,9.7 -6,12.6l1.8,1.7c2.4,2.1 4.5,2.9 6.4,2.9zm-8.5,-17.2c0,-5.8 -4.1,-10.2 -9.7,-10.2c-5.7,0 -9.8,4.5 -9.8,10.2c0,5.8 4.1,10.2 9.8,10.2c5.6,0 9.7,-4.4 9.7,-10.2z"/>
  <path id="svg_24" d="m228.4,60.49922l6.1,0l0,18.4c0,8 -4.7,12.7 -12.3,12.7s-12.2,-4.8 -12.2,-12.7l0,-18.4l6.1,0l0,18.9c0,4.1 2.3,6.4 6.1,6.4s6.1,-2.4 6.1,-6.4l0.1,-18.9z"/>
  <path id="svg_25" d="m242.1,60.49922l17.6,0l0,5.2l-11.5,0l0,7l9.8,0l0,5.2l-9.8,0l0,7.6l11.5,0l0,5.2l-17.6,0l0,-30.2z"/>
  <path id="svg_26" d="m0.1,104.09922l17.6,0l0,5.2l-11.5,0l0,7l9.8,0l0,5.2l-9.8,0l0,12.8l-6.1,0l0,-30.2z"/>
  <path id="svg_27" d="m23.1,104.09922l9.2,0c6.7,0 10.8,3.4 10.8,9c0,3.6 -1.8,6.4 -4.8,7.8l9.5,13.4l-7.3,0l-8,-12.2l-3.2,0l0,12.2l-6.1,0l-0.1,-30.2zm6.2,5.2l0,7.6l3.5,0c2.6,0 4.1,-1.4 4.1,-3.8c0,-2.3 -1.5,-3.7 -4.1,-3.7l-3.5,-0.1z"/>
  <path id="svg_28" d="m60.6,104.09922l8,0l11.5,30.3l-6.5,0l-2.9,-7.9l-12.2,0l-2.9,7.9l-6.5,0l11.5,-30.3zm8.1,17.1l-4.1,-11.4l-4.2,11.4l8.3,0z"/>
  <path id="svg_29" d="m84.7,104.09922l7.9,0l13.5,21.7l0,-21.7l6.1,0l0,30.3l-7.9,0l-13.5,-21.7l0,21.7l-6.1,0l0,-30.3z"/>
  <path id="svg_30" d="m142.1,125.29922l4.8,3.7c-2.3,3.2 -6,5.4 -10.4,6l-3.8,6.3l-5.4,0l3.8,-6.4c-7.9,-1.4 -13.1,-8 -13.1,-15.7c0,-8.6 6.5,-16 16.1,-16c5.5,0 10,2.5 12.7,6.1l-4.8,3.8c-1.7,-2.5 -4.5,-4.1 -7.9,-4.1c-5.7,0 -9.8,4.5 -9.8,10.2c0,5.8 4.1,10.2 9.8,10.2c3.6,0 6.3,-1.6 8,-4.1z"/>
  <path id="svg_31" d="m159.7,104.09922l8,0l11.5,30.3l-6.5,0l-2.9,-7.9l-12.1,0l-2.9,7.9l-6.5,0l11.4,-30.3zm8.2,17.1l-4.1,-11.4l-4.1,11.4l8.2,0z"/>
  <path id="svg_32" d="m183.9,104.09922l6.1,0l0,30.3l-6.1,0l0,-30.3z"/>
  <path id="svg_33" d="m200.2,125.99922c1.8,2.3 4.2,3.7 6.7,3.7c2.4,0 3.9,-1.3 3.9,-3.5c0,-5.4 -13.8,-4.2 -13.8,-14.3c0,-4.8 3.9,-8.8 9.7,-8.8c4.5,0 8,2 10.6,5.1l-4.5,4c-1.8,-2.3 -3.8,-3.8 -6.1,-3.8c-2.1,0 -3.5,1.4 -3.5,3.2c0,5.4 13.8,4.1 13.8,14.4c-0.1,5.6 -4.5,9.1 -10,9.1c-5.1,0 -8.6,-1.9 -11.2,-5.1l4.4,-4z"/>
  <path id="svg_34" d="m223.5,104.09922l17.6,0l0,5.2l-11.5,0l0,7l9.8,0l0,5.2l-9.8,0l0,7.6l11.5,0l0,5.2l-17.6,0l0,-30.2z"/>
  <path id="svg_35" d="m98.5,217.89922c0.8,0 1.5,0.6 1.2,2.2l-3.8,0.9c0.7,-1.8 1.8,-3.1 2.6,-3.1m2.2,6.1l-0.8,0c-1,1.1 -2,2 -3,2s-1.6,-0.6 -1.6,-2c0,-0.6 0.1,-1.2 0.2,-1.7l6.1,-2c1.2,-2.8 -0.2,-4.1 -1.9,-4.1c-2.9,0 -6.2,4.9 -6.2,9.1c0,1.9 0.9,3 2.3,3c1.7,0 3.4,-1.6 4.9,-4.3m-1.3,-8.9l4.3,-4l0,-0.5l-2.3,0l-2.7,4.5l0.7,0zm-13.2,2.8l2,0l-3.2,8.9c-0.3,0.8 0.1,1.5 0.9,1.5c1.8,0 4.8,-1.8 5.9,-4.3l-0.6,0c-0.8,0.9 -2.4,2 -3.7,2.3l3,-8.3l3,0l0.4,-1.3l-3,0l1.1,-3.2l-1.2,0l-2.1,3.2l-2.5,0.4l0,0.8zm-2.8,-0.4c0.2,-0.8 -0.3,-1.3 -0.7,-1.3c-1.8,0 -3.9,1.6 -4.7,3.8l0.6,0c0.6,-0.8 1.6,-1.7 2.5,-1.9l-3.4,8.8c-0.3,0.8 0.3,1.3 0.7,1.3c1.7,0 3.7,-1.6 4.5,-3.8l-0.6,0c-0.6,0.8 -1.6,1.7 -2.5,1.9l3.6,-8.8zm0.6,-4.4c0.8,0 1.5,-0.6 1.5,-1.5c0,-0.8 -0.7,-1.5 -1.5,-1.5s-1.5,0.7 -1.5,1.5c0.1,0.8 0.7,1.5 1.5,1.5m-19.5,13.6c-0.4,1 0,1.6 1,1.6c0.6,0 0.9,-0.2 1.1,-0.8l2.4,-6.2c1.1,-1.3 3.3,-2.8 4.2,-2.8c0.6,0 0.6,0.5 0.1,1.3l-3.6,6.9c-0.4,0.7 0.1,1.5 0.9,1.5c1.8,0 3.9,-1.6 4.7,-3.8l-0.6,0c-0.6,0.8 -1.6,1.7 -2.5,1.9l3.1,-6.3c0.4,-0.8 0.6,-1.6 0.6,-2.2c0,-1 -0.6,-1.7 -1.6,-1.7c-1.5,0 -3.1,1.7 -4.9,3.9l0,-1.6c0,-1.2 -0.4,-2.2 -1.4,-2.2c-0.7,0 -1.3,0.6 -1.9,1.4l0,0.2c1.2,-0.1 1.7,1.7 0.8,3.5l-2.4,5.4zm0,-7.8c0.4,-1.4 0.2,-2.7 -0.9,-2.7c-1.3,0 -1.6,1 -3,3.9l0,-1.6c0,-1.2 -0.4,-2.2 -1.4,-2.2c-1.2,0 -2.4,1.9 -3.2,3.8l0.6,0c0.6,-0.9 1.2,-1.4 1.6,-1.4c0.5,0 0.8,0.8 0,2.6l-2.4,5.3c-0.4,1 0,1.6 1,1.6c0.6,0 0.9,-0.2 1.1,-0.8l2.4,-6.2c0.7,-0.8 1.3,-1.5 2,-2.3l2.2,0zm-13.7,-1c0.8,0 1.5,0.6 1.2,2.2l-3.8,0.9c0.6,-1.8 1.8,-3.1 2.6,-3.1m2.1,6.1l-0.8,0c-1,1.1 -2,2 -3,2s-1.6,-0.6 -1.6,-2c0,-0.6 0.1,-1.2 0.2,-1.7l6.1,-2c1.2,-2.8 -0.2,-4.1 -1.9,-4.1c-2.9,0 -6.2,4.9 -6.2,9.1c0,1.9 0.9,3 2.3,3c1.8,0 3.5,-1.6 4.9,-4.3m-14.4,-6.1l2,0l-3.2,8.9c-0.3,0.8 0.1,1.5 0.9,1.5c1.8,0 4.8,-1.8 5.9,-4.3l-0.6,0c-0.8,0.9 -2.4,2 -3.7,2.3l3,-8.3l3,0l0.4,-1.3l-3,0l1.1,-3.2l-1.2,0l-2.1,3.2l-2.5,0.4l0,0.8zm-11.2,6.9c0,-2.7 3,-6.4 4.7,-6.4c0.4,0 0.7,0 1,0.1l-1.8,4.7c-1,1.2 -2.6,2.8 -3.3,2.8c-0.4,0 -0.6,-0.3 -0.6,-1.2m9.3,-9.1l-0.9,-0.1l-1,1l-0.2,0c-5.1,0 -9.4,5.7 -9.4,9.8c0,1.2 0.7,1.8 1.8,1.8c1.3,0 2.6,-1.9 4,-3.9l-0.1,0.7c-0.2,2 0.4,3.1 1.5,3.1c1.2,0 2.4,-1.9 3.2,-3.8l-0.6,0c-0.6,0.9 -1.2,1.4 -1.6,1.4c-0.5,0 -0.8,-0.8 0,-2.6l3.3,-7.4zm-10.8,3.2c0.4,-1.4 0.2,-2.7 -0.9,-2.7c-1.3,0 -1.6,1 -3,3.9l0,-1.6c0,-1.2 -0.4,-2.2 -1.4,-2.2c-1.2,0 -2.4,1.9 -3.2,3.8l0.6,0c0.6,-0.9 1.2,-1.4 1.6,-1.4c0.5,0 0.8,0.8 0,2.6l-2.4,5.3c-0.4,1 0,1.6 1,1.6c0.6,0 0.9,-0.2 1.1,-0.8l2.4,-6.2c0.7,-0.8 1.3,-1.5 2,-2.3l2.2,0zm-17,9l0.2,-0.7c-3,-0.6 -3.3,-0.6 -2.2,-3.8l1.2,-3.3l3.3,0c1.5,0 1.5,0.6 1.3,2.2l0.8,0l2,-5.3l-0.8,0c-0.7,1.3 -1.3,2.2 -2.9,2.2l-3.3,0l1.7,-4.7c0.5,-1.5 0.8,-1.8 2.8,-1.8l1.4,0c2.1,0 2.3,0.6 2.3,2.6l0.8,0l0.7,-3.6l-12.1,0l-0.2,0.7c2.4,0.5 2.6,0.7 1.5,3.8l-2.7,7.3c-1.1,3 -1.6,3.3 -4.3,3.8l-0.2,0.7l8.7,-0.1z"/>
  <path id="svg_36" d="m68.8,190.09922c0.8,0 1.5,0.6 1.2,2.2l-3.8,0.9c0.7,-1.7 1.8,-3.1 2.6,-3.1m2.2,6.2l-0.8,0c-1,1.1 -2,2 -3,2s-1.6,-0.6 -1.6,-2c0,-0.6 0.1,-1.2 0.2,-1.7l6.1,-2c1.2,-2.8 -0.2,-4.1 -1.9,-4.1c-2.9,0 -6.2,4.9 -6.2,9.1c0,1.9 0.9,3 2.3,3c1.7,0 3.4,-1.7 4.9,-4.3m-1.3,-8.9l4.3,-4l0,-0.5l-2.3,0l-2.7,4.5l0.7,0zm-13.2,2.8l2,0l-3.2,8.9c-0.3,0.8 0.1,1.5 0.9,1.5c1.8,0 4.8,-1.8 5.9,-4.3l-0.6,0c-0.8,0.9 -2.4,2 -3.7,2.3l3,-8.3l3,0l0.4,-1.3l-3,0l1.1,-3.2l-1.2,0l-2.1,3.2l-2.5,0.4l0,0.8zm-2.8,-0.4c0.2,-0.8 -0.3,-1.3 -0.7,-1.3c-1.8,0 -3.9,1.6 -4.7,3.8l0.6,0c0.6,-0.8 1.6,-1.7 2.5,-1.9l-3.4,8.8c-0.3,0.8 0.3,1.3 0.7,1.3c1.7,0 3.7,-1.6 4.5,-3.8l-0.6,0c-0.6,0.8 -1.6,1.7 -2.5,1.9l3.6,-8.8zm0.6,-4.4c0.8,0 1.5,-0.6 1.5,-1.5c0,-0.8 -0.7,-1.5 -1.5,-1.5s-1.5,0.7 -1.5,1.5c0.1,0.8 0.7,1.5 1.5,1.5m-11.8,13.2l6.2,-16.2l-0.2,-0.2l-3.9,0.4l0,0.5l0.8,0.6c0.7,0.5 0.5,1 -0.2,2.7l-4.8,12.7c-0.4,0.7 0.1,1.5 0.9,1.5c1.8,0 3.7,-1.6 4.5,-3.8l-0.6,0c-0.6,0.8 -1.7,1.7 -2.7,1.8m-11.7,-1.5c0,-2.7 3,-6.4 4.7,-6.4c0.4,0 0.7,0 1,0.1l-1.8,4.7c-1,1.2 -2.6,2.8 -3.3,2.8c-0.3,0 -0.6,-0.4 -0.6,-1.2m9.3,-9.1l-0.9,-0.1l-1,1l-0.2,0c-5.1,0 -9.4,5.7 -9.4,9.8c0,1.2 0.7,1.8 1.8,1.8c1.3,0 2.6,-1.9 4,-3.9l-0.1,0.7c-0.2,2 0.4,3.1 1.5,3.1c1.2,0 2.4,-1.9 3.2,-3.8l-0.6,0c-0.6,0.9 -1.2,1.4 -1.6,1.4c-0.5,0 -0.8,-0.8 0,-2.6l3.3,-7.4zm-22.6,14.7c0,-1.2 1.1,-1.9 2.8,-2.6c0.5,0.3 1.3,0.6 2.4,0.9c1.7,0.6 2.3,0.8 2.3,1.3c0,1.1 -1.8,1.9 -4.3,1.9c-2.1,0.1 -3.2,-0.4 -3.2,-1.5m4.6,-7.1c-0.7,0 -1,-0.6 -1,-1.3c0,-2 1.1,-4.9 2.7,-4.9c0.7,0 1,0.6 1,1.3c0.1,1.9 -1,4.9 -2.7,4.9m4.8,6c0,-1.4 -1.3,-1.9 -3.3,-2.6c-1.8,-0.5 -2.6,-0.7 -2.6,-1.3c0,-0.5 0.4,-1 1.1,-1.4c2.9,-0.2 4.8,-2.8 4.8,-5c0,-0.5 -0.1,-0.9 -0.2,-1.2l2.5,0l0.4,-1.3l-3.9,0c-0.5,-0.3 -1,-0.4 -1.6,-0.4c-3.1,0 -5.1,2.7 -5.1,4.9c0,1.7 1.1,2.7 2.4,3c-1.4,0.6 -2.2,1.4 -2.2,2.3c0,0.5 0.2,0.9 0.6,1.2c-3.3,1 -4.6,2.1 -4.6,3.7c0,1.5 2,2.2 4.4,2.2c4,0 7.3,-2.2 7.3,-4.1m-15.5,-9.5c1.5,0 1.5,0.6 1.3,2.2l0.8,0l2,-5.3l-0.8,0c-0.7,1.3 -1.3,2.2 -2.9,2.2l-3.3,0l1.6,-4.5c0.5,-1.5 0.8,-1.8 2.8,-1.8l1.4,0c2.1,0 2.3,0.6 2.3,2.6l0.8,0l0.7,-3.6l-12.1,0l-0.2,0.7c2.4,0.5 2.6,0.7 1.5,3.8l-2.7,7.3c-1.1,3 -1.6,3.3 -4.3,3.8l-0.2,0.7l13.6,0l2.4,-3.9l-0.9,0c-1.6,1.5 -3.5,2.9 -6.2,2.9c-3.6,0 -3.3,-0.2 -2.1,-3.5l1.3,-3.5l3.2,-0.1zm1.8,-9.3l4.3,-3l0,-0.5l-2.6,0l-2.4,3.4l0.7,0l0,0.1z"/>
  <path id="svg_37" d="m67.4,162.39922c0.8,0 1.5,0.6 1.2,2.2l-3.8,0.9c0.6,-1.8 1.7,-3.1 2.6,-3.1m2.1,6.2l-0.8,0c-1,1.1 -2,2 -3,2s-1.6,-0.6 -1.6,-2c0,-0.6 0.1,-1.2 0.2,-1.7l6.1,-2c1.2,-2.8 -0.2,-4.1 -1.9,-4.1c-2.9,0 -6.2,4.9 -6.2,9.1c0,1.9 0.9,3 2.3,3c1.8,-0.1 3.5,-1.7 4.9,-4.3m-1.2,-9l4.3,-4l0,-0.5l-2.3,0l-2.7,4.5l0.7,0zm-12.7,2.9l1.6,0l-3.2,8.9c-0.3,0.8 0.1,1.5 0.9,1.5c1.8,0 4.8,-1.8 5.9,-4.3l-0.6,0c-0.8,0.9 -2.4,2 -3.7,2.3l3,-8.3l3,0l0.4,-1.3l-3,0l1.1,-3.2l-1.2,0l-2.1,3.2l-2.1,0.4l0,0.8zm-1.6,1c0.4,-1.4 0.2,-2.7 -0.9,-2.7c-1.3,0 -1.6,1 -3,3.9l0,-1.6c0,-1.2 -0.4,-2.2 -1.4,-2.2c-1.2,0 -2.4,1.9 -3.2,3.8l0.5,0c0.6,-0.9 1.2,-1.4 1.6,-1.4c0.5,0 0.8,0.8 0,2.6l-2.4,5.3c-0.4,1 0,1.6 1,1.6c0.6,0 0.9,-0.2 1.1,-0.8l2.4,-6.2c0.7,-0.8 1.3,-1.5 2,-2.3l2.3,0zm-13.6,-1.1c0.8,0 1.5,0.6 1.2,2.2l-3.8,0.9c0.6,-1.8 1.7,-3.1 2.6,-3.1m2.1,6.2l-0.8,0c-1,1.1 -2,2 -3,2s-1.6,-0.6 -1.6,-2c0,-0.6 0.1,-1.2 0.2,-1.7l6.1,-2c1.2,-2.8 -0.2,-4.1 -1.9,-4.1c-2.9,0 -6.2,4.9 -6.2,9.1c0,1.9 0.9,3 2.3,3c1.7,-0.1 3.5,-1.7 4.9,-4.3m-15.1,2.4c-0.6,0 -1.5,-0.6 -1.5,-1c0,-0.2 0.3,-0.8 0.6,-1.7l1,-2.6c1.1,-1.3 2.7,-2.6 3.6,-2.6c0.6,0 1,0.4 1,1.2c0,2.3 -2.2,6.7 -4.7,6.7m7,-7.8c0,-1.8 -0.7,-2.5 -1.9,-2.5c-1.6,0 -3,1.6 -4.5,3.6l3.7,-9.7l-0.2,-0.2l-3.9,0.4l0,0.5l0.8,0.6c0.7,0.5 0.5,1.1 -0.2,2.7l-4,10.3c-0.3,0.8 -0.6,1.6 -0.6,1.9c0,1.1 1.4,2.1 2.8,2.1c3,-0.1 8,-5.5 8,-9.7m-12.1,-1.1c0.2,-0.8 -0.3,-1.3 -0.7,-1.3c-1.8,0 -3.9,1.6 -4.7,3.8l0.6,0c0.6,-0.8 1.6,-1.7 2.5,-1.9l-3.4,8.8c-0.3,0.8 0.3,1.3 0.7,1.3c1.7,0 3.7,-1.6 4.5,-3.8l-0.6,0c-0.6,0.8 -1.6,1.7 -2.5,1.9l3.6,-8.8zm0.7,-4.5c0.8,0 1.5,-0.6 1.5,-1.5c0,-0.8 -0.7,-1.5 -1.5,-1.5s-1.5,0.7 -1.5,1.5c0,0.9 0.6,1.5 1.5,1.5m-9,-1.4l-8.1,0l-0.2,0.7c2.4,0.5 2.6,0.7 1.5,3.8l-2.6,7.3c-1.1,3 -1.6,3.3 -4.3,3.8l-0.2,0.7l12.3,0l2.7,-4.7l-0.9,0c-1.5,1.7 -3.3,3.7 -6,3.7c-2.1,0 -2.3,-0.4 -1.2,-3.5l2.6,-7.3c1.1,-3 1.6,-3.3 4.3,-3.8l0.1,-0.7z"/>
  <path id="svg_38" fill="#000091" d="m45.7,35.59922c0.4,-0.4 0.9,-0.9 1.3,-1.4c0.8,-0.9 1.6,-1.8 2.5,-2.6c0.3,-0.3 0.6,-0.5 0.8,-0.7c0.1,-0.1 0.1,-0.2 0.2,-0.3c-0.4,0.2 -0.6,0.5 -1,0.6c-0.1,0 -0.2,-0.1 -0.1,-0.2c0.3,-0.2 0.5,-0.4 0.8,-0.6c0,0 0,0 -0.1,0s-0.1,-0.1 -0.1,-0.2c-1,-0.2 -1.7,0.5 -2.4,1.1c-0.2,0.1 -0.3,-0.1 -0.4,-0.1c-1.1,0.4 -2,1.4 -3.1,1.8c0,-0.1 0,-0.1 0,-0.2c-0.5,0.2 -0.9,0.4 -1.4,0.5c-0.7,0.2 -1.3,0.1 -1.9,0.1c-0.9,0.1 -1.8,0.3 -2.8,0.5l-0.1,0c-0.5,0.1 -1,0.3 -1.4,0.6c0,0 0,0 -0.1,0l-0.1,0.1c-0.2,0.2 -0.3,0.3 -0.5,0.5c-0.5,0.2 -0.8,0.7 -1.3,1l-0.1,0c-0.4,0.4 -0.8,0.8 -1.2,1.2c0,0 -0.1,0 -0.2,0s0,0 0,-0.1c0.1,-0.1 0.1,-0.2 0.2,-0.3s0.1,-0.2 0.2,-0.4s0.2,-0.3 0.3,-0.5l0,-0.1l-0.1,0c0.4,-0.4 0.8,-0.7 1.3,-1c-0.1,0 -0.1,0 -0.1,-0.1s0.1,-0.1 0.1,-0.2c0,0 0,0 0,-0.1c0,0 0,0 -0.1,-0.1c-0.1,0.1 -0.3,0.2 -0.4,0.2c-0.2,0.2 -0.3,0.5 -0.6,0.5l-0.1,0l-0.1,0s0,0 0,-0.1c0,0 0,0 0,-0.1c0,0 0,0 0,-0.1c0,0 0,-0.1 0.1,-0.1c0,0 0,0 0,-0.1s0.1,-0.1 0.1,-0.2l0,-0.1l0.1,-0.1c0,-0.1 0,-0.1 -0.1,-0.1c0.1,-0.2 0.3,-0.3 0.5,-0.5c0.3,-0.1 0.6,-0.3 0.9,-0.5l0.1,-0.1c-0.4,0.1 -0.8,0.3 -1.2,0.6c0,0 -0.1,0 -0.1,0.1c0,0 -0.1,0 -0.2,-0.1c0,0 0,0 0,-0.1c0.1,-0.2 0.3,-0.2 0.5,-0.4c0.1,0 0.2,0 0.2,0.1c2.4,-1.9 5.8,-1.4 8.6,-2.4c0.2,-0.2 0.5,-0.3 0.7,-0.5c0.4,-0.2 0.7,-0.5 1.1,-0.8c0.6,-0.5 1.1,-1 1.3,-1.7c0,-0.1 -0.1,-0.2 -0.1,-0.2c-1,1.1 -2.1,1.9 -3.3,2.5c-1.6,0.8 -3.3,0.7 -5,0.9c0.1,-0.2 0.2,-0.2 0.4,-0.2c0,-0.2 0.2,-0.3 0.3,-0.5l0.2,0c0.1,0 0.1,-0.2 0.2,-0.2c0.2,0 0.4,-0.1 0.3,-0.1c-0.2,-0.3 -0.7,0.2 -1.1,0c0.2,-0.2 0.1,-0.4 0.2,-0.5l0.3,0c0,-0.2 0.2,-0.3 0.2,-0.3c1.1,-0.7 2.2,-1.2 3.3,-1.8c-0.2,0 -0.4,0.2 -0.6,0.1c0.2,0 0,-0.2 0.2,-0.2c0.8,-0.2 1.5,-0.7 2.4,-1c-0.3,0 -0.5,0.2 -0.8,0c0.2,-0.1 0.2,-0.2 0.5,-0.2c0,-0.1 0,-0.2 0,-0.2c0,-0.1 0.1,-0.1 0.2,-0.1c-0.1,0 -0.2,-0.1 -0.2,-0.1c0.1,-0.2 0.3,-0.1 0.5,-0.2c-0.1,0 -0.2,0 -0.2,-0.1c0.2,-0.3 0.6,-0.4 1,-0.5c-0.1,-0.2 -0.3,0 -0.3,-0.2c0,-0.1 0.1,-0.1 0.2,-0.1c-0.1,0 -0.1,0 -0.2,0c-0.2,-0.1 -0.1,-0.2 -0.1,-0.3c0.5,-0.5 0.5,-1.2 0.7,-1.8c-0.1,0 -0.2,0 -0.2,-0.1c-0.8,0.8 -2,1.1 -3.1,1.4c-0.1,0 -0.3,0 -0.4,0c-0.4,0.2 -0.9,0.2 -1.3,-0.1c-0.3,-0.2 -0.5,-0.4 -0.8,-0.6c-0.6,-0.4 -1.2,-0.7 -1.9,-0.9c-1.7,0.5 -3.7,0.2 -5.7,0.3c0.8,-0.5 1.8,-0.5 2.7,-0.8c1.3,-0.4 2.5,-0.8 3.9,-0.8c-0.2,-0.1 -0.5,0 -0.8,0c-1.1,-0.1 -2.1,0.2 -3.3,0.5c-0.8,0.2 -1.4,0.5 -2.2,0.6c-0.5,0.2 -0.7,0.6 -1.2,0.5l0,-0.2c0.8,-0.9 1.7,-1.8 2.9,-1.9c1.4,-0.2 2.7,0 4,0.2c1,0.1 1.9,0.3 2.9,0.5c0.4,0 0.5,0.6 0.8,0.7c0.5,0.2 0.9,0 1.4,0.3c0,-0.2 -0.1,-0.3 0,-0.5c0.3,-0.3 0.7,0.1 1,-0.1c0.6,-0.4 -0.5,-1.1 -0.8,-1.6c0,-0.1 0.1,-0.2 0.1,-0.2c0.6,0.5 1.1,1.1 1.8,1.5c0.4,0.2 1.3,0.4 1.1,-0.1c-0.4,-0.8 -1.1,-1.5 -1.7,-2.3c0,-0.1 0,-0.2 0,-0.3c-0.2,0 -0.2,-0.1 -0.2,-0.2s0,-0.2 0,-0.3c-0.3,-0.2 -0.2,-0.5 -0.4,-0.7c-0.2,-0.4 -0.1,-0.9 -0.2,-1.4s-0.2,-0.8 -0.3,-1.3c-0.2,-1.3 -0.5,-2.4 -0.7,-3.6c-0.2,-1.4 0.8,-2.6 1.5,-3.9c0.5,-0.9 1.1,-1.8 2.1,-2.4c0.2,-0.9 0.8,-1.7 1.4,-2.4s1.6,-1.2 2.3,-1.5c1.1,-0.5 2,-0.8 2,-0.8l-52.1,0l0,40.2l36.9,0c1.4,-1 2.9,-1.5 4.9,-2.5c1,-0.3 3.1,-1.3 3.9,-2.1zm-11.7,-5.4c-0.2,0 -0.5,0.1 -0.4,-0.1c0.1,-0.4 0.6,-0.4 0.9,-0.5c0.2,-0.1 0.4,-0.2 0.5,-0.2c0.2,0.2 0.4,0.2 0.5,0.3c-0.4,0.5 -1,0.3 -1.5,0.5zm-11.6,-1.7s-0.1,-0.1 -0.1,-0.2c1,-1.3 1.7,-2.5 2.4,-3.9c1,-0.5 1.8,-1.3 2.6,-2.1c1.3,-1.4 2.7,-2.6 4.3,-3.3c0.6,-0.2 1.4,-0.2 2,0.1c-0.2,0.3 -0.6,0.2 -0.9,0.5c-0.1,0 -0.2,0 -0.2,-0.1c0.1,-0.1 0.1,-0.2 0.1,-0.2c-0.8,0.8 -1.8,1.2 -2.4,2.2c-0.5,0.8 -0.8,1.7 -1.7,2c-0.3,0.1 0.1,-0.2 -0.1,-0.2c-2.5,1.4 -4.2,3.2 -6,5.2zm6.3,-5c-0.1,0.2 -0.2,0.2 -0.2,0.3c-0.1,0.2 -0.2,0.2 -0.3,0.3c-0.1,0 -0.2,0 -0.2,-0.1c0.1,-0.3 0.3,-0.6 0.6,-0.7c0.1,0.1 0.1,0.1 0.1,0.2zm3.5,11.4c0,0.1 -0.1,0.2 -0.2,0.2c0.1,0 0.2,0.1 0.1,0.1c-0.2,0.2 -0.3,0.3 -0.6,0.4l-0.1,0c-0.1,0.1 -0.2,0.2 -0.3,0.3s-0.5,0 -0.4,-0.1c0.2,-0.2 0.4,-0.4 0.6,-0.5c0.1,-0.1 0.2,-0.2 0.3,-0.3l0.2,-0.2c0.1,0 0.5,-0.1 0.4,0.1zm-1.4,-0.6c-0.3,0.2 -0.6,0.4 -0.9,0.6s-0.7,0.3 -1,0.5s-0.1,-0.1 -0.1,0c-0.3,0.2 -0.5,0.4 -0.8,0.6l-0.1,0.1l-0.1,0.1c-0.1,0.1 -0.1,0.1 -0.2,0.2l-0.1,0.1s-0.2,0 -0.2,-0.1s-0.1,0 -0.1,0.1c0,0 -0.1,0 -0.1,0.1c0,0 0,0 -0.1,0c0,0 0,0 -0.1,0c-0.1,0.1 -0.2,0.2 -0.3,0.2c-0.2,0.1 -0.3,0.3 -0.4,0.5s0,0.1 -0.1,0.1s0,0 -0.1,0s0,-0.1 -0.1,-0.1c0.1,-0.1 0.2,-0.2 0.2,-0.3l0.1,-0.1c0,-0.1 0.1,-0.1 0.1,-0.2c0,0 0,0 0,-0.1c0.1,-0.1 0.2,-0.2 0.2,-0.3c0,-0.1 0.1,-0.1 0.1,-0.2c0,0 0.1,-0.1 0.1,-0.2c0,-0.1 0.1,-0.1 0.1,-0.2l0,-0.1l0,-0.1s0,0 0,-0.1c0.1,-0.1 0.2,-0.3 0.3,-0.4c-0.1,0.1 -0.2,0.2 -0.3,0.2c-0.1,0.1 -0.2,0 -0.1,-0.1c0.1,0 0.1,-0.1 0.2,-0.2c0.1,-0.1 0.2,-0.3 0.4,-0.4c0.1,-0.1 0.2,-0.1 0.2,-0.2c0.1,-0.1 0.1,-0.1 0.2,-0.2c0.7,-0.7 1.9,-0.7 2.9,-1.1c0.4,-0.2 0.8,0.1 1.2,0c0.2,0 0.5,0 0.7,0.2c-0.4,0.3 -1,0.7 -1.7,1.1zm1.6,-5.3c-0.1,-0.1 0.2,0 0.3,-0.2c-0.2,0 -0.4,0 -0.6,0c-0.1,0 -0.1,-0.1 -0.1,-0.2c-0.4,0.1 -0.8,0.2 -1.2,0.3c-0.5,0.2 -1,0.5 -1.6,0.7c-0.8,0.3 -1.5,1 -2.4,1.3c-0.1,0 -0.1,-0.1 -0.1,-0.2c0.1,-0.2 0.4,-0.3 0.5,-0.5c0,-0.1 0,-0.2 -0.1,-0.2c0.6,-0.8 1.4,-1.3 2.2,-2c0,-0.1 0,-0.2 0,-0.2c0.2,-0.3 0.6,-0.5 0.8,-0.8c0.1,-0.2 0.4,-0.5 0.8,-0.7c-0.1,-0.1 -0.2,-0.1 -0.2,-0.2c-0.3,0 -0.6,0.2 -0.9,-0.1c0.1,-0.1 0.3,-0.2 0.5,-0.3c-0.1,0 -0.1,0 -0.2,-0.1c-0.1,-0.2 0.1,-0.3 0.4,-0.4s0.7,-0.1 0.9,-0.3c-0.5,-0.1 -1.1,0.2 -1.7,-0.2c0.4,-1 1,-1.8 1.9,-2.3c0.1,0 0.2,0 0.2,0.1c0,0.4 -0.2,0.7 -0.6,0.8c0.6,0.2 1.2,0.2 1.8,0.5c-0.1,0.2 -0.2,0.1 -0.3,0.1c0.4,0.2 0.8,0.1 1.2,0.4c-0.2,0.2 -0.5,0 -0.7,0c2.4,0.7 4.9,1.2 6.8,2.7c-1.7,0.8 -3.4,1.2 -5.2,1.6c-0.2,0 -0.4,0 -0.6,-0.1c0,0.1 0,0.2 -0.1,0.2c-0.3,0 -0.5,0 -0.8,0.2c-0.2,0.2 -0.7,0.3 -0.9,0.1z"/>
  <path id="svg_39" fill="#e1000f" d="m110.5,0.19922l-43.2,0s0.1,0 0.4,0.2c0.4,0.2 0.8,0.4 1.1,0.6c0.6,0.3 1.1,0.7 1.4,1.2c0.2,0.2 0.4,0.7 0.2,1c-0.2,0.4 -0.2,1 -0.6,1.1c-0.5,0.2 -1.1,0.2 -1.6,0.2c-0.3,0 -0.6,-0.1 -0.9,-0.2c1.1,0.5 2.2,1 3,2c0.1,0.2 0.4,0.2 0.7,0.2l0,0.3c-0.2,0.2 -0.3,0.2 -0.2,0.5l0.2,0c0.4,-0.2 0.3,-0.9 0.8,-0.7c0.4,0.2 0.5,0.8 0.3,1.1c-0.3,0.3 -0.6,0.5 -0.9,0.8c-0.1,0.2 -0.1,0.4 0,0.5c0.2,0.3 0.3,0.6 0.4,0.9c0.2,0.5 0.3,1.1 0.5,1.7c0.3,1.1 0.6,2.3 0.5,3.4c0,0.6 -0.3,1.1 -0.1,1.7s0.5,1.1 0.8,1.6s0.6,0.8 0.8,1.2c0.5,0.8 1.3,1.5 0.9,2.4c-0.2,0.5 -1.1,0.5 -1.6,0.8c-0.5,0.4 -0.1,1 0.2,1.4c0.4,0.7 -0.5,1.1 -1,1.4c0.2,0.2 0.5,0.2 0.5,0.3c0.1,0.4 0.5,0.6 0.2,1c-0.3,0.5 -1.2,0.7 -0.8,1.4c0.3,0.5 0.1,1.1 -0.1,1.7c-0.2,0.7 -0.8,1 -1.4,1.1c-0.5,0.2 -1,0.2 -1.4,0.1c-0.2,-0.1 -0.3,-0.2 -0.5,-0.2c-1.3,-0.2 -2.6,-0.5 -3.9,-0.5c-0.4,0.1 -0.8,0.2 -1.1,0.3c-0.3,0.3 -0.6,0.5 -0.9,0.8c-0.1,0.1 -0.1,0.1 -0.2,0.2l-0.1,0.1s0,0.1 -0.1,0.1c-0.2,0.3 -0.4,0.6 -0.6,0.9l0,0.1s0,0.1 -0.1,0.1c-0.2,0.5 -0.4,0.9 -0.6,1.4c-0.5,1.7 -0.3,3.2 0.1,3.6c0.1,0.1 2.5,0.8 4.2,1.6c0.8,0.3 1.3,0.6 1.8,0.9l42.4,0l0,-40.3l0.5,0z"/>
  <path id="svg_40" fill="#9d9d9c" d="m69.8,14.89922c0.3,0.1 0.8,0.1 0.8,0.2c-0.2,0.6 -1.1,0.8 -1.5,1.4l-0.2,0c-0.2,0.2 -0.2,0.5 -0.4,0.5c-0.2,-0.1 -0.5,0 -0.7,0.1c0.3,0.3 0.7,0.5 1.1,0.5c0.1,0 0.2,0.2 0.2,0.3c0,0 0.1,0 0.2,-0.1c0.1,0 0.2,0 0.2,0.1l0,0.3c-0.2,0.3 -0.6,0.2 -0.9,0.2c0.6,0.2 1.2,0.2 1.7,0s0,-0.9 0.3,-1.3c-0.2,0 0,-0.2 -0.2,-0.2c0.2,-0.2 0.3,-0.4 0.5,-0.5c0.2,0 0.4,-0.1 0.5,-0.2c0,-0.2 -0.3,-0.2 -0.2,-0.4c0.5,-0.3 0.8,-0.8 0.7,-1.2c-0.1,-0.2 -0.7,-0.2 -1.1,-0.4s-0.8,0 -1.3,0.1c-0.4,0 -0.8,0.2 -1.1,0.3c-0.5,0.2 -1,0.5 -1.4,0.8c0.5,-0.2 1.1,-0.3 1.7,-0.5c0.3,0 0.7,-0.2 1.1,0z"/>
 </g>
</svg>